<svg xmlns="http://www.w3.org/2000/svg" viewBox="0 0 134.15 134.15"><defs><style>.cls-1{fill:#fff;}.cls-2{fill:none;stroke:#fff;stroke-miterlimit:10;stroke-width:4px;}</style></defs><g id="Layer_2" data-name="Layer 2"><g id="Layer_1-2" data-name="Layer 1"><path class="cls-1" d="M97.22,90.49c-1,1.45-2,2.85-3.06,4.25-2.08,2.87-4.93,3.59-8.23,3.19-4.72-.56-8.89-2.59-12.89-5C65.43,88.22,58.92,82.24,52.81,75.8A80.69,80.69,0,0,1,39.69,58.35,28.32,28.32,0,0,1,36.24,48.3c-.06-.49-.09-1-.13-1.48a7.73,7.73,0,0,1,3.1-6.64C40.77,39,42.32,37.83,44,36.76a3.42,3.42,0,0,1,4.38.32q3.77,3.66,7.42,7.44a3.5,3.5,0,0,1,.39,4.39c-.81,1.33-1.67,2.62-2.37,4a4.19,4.19,0,0,0-.12,3.88,39.29,39.29,0,0,0,7,10.06A65.71,65.71,0,0,0,74.42,79a31.83,31.83,0,0,0,3.07,1.59,3.93,3.93,0,0,0,3.61-.09A41.14,41.14,0,0,0,85,78.22a3.69,3.69,0,0,1,5.09.54q3.38,3.36,6.73,6.73A3.56,3.56,0,0,1,97.22,90.49Z"/><circle class="cls-2" cx="67.08" cy="67.08" r="65.08"/></g></g></svg>