<svg xmlns="http://www.w3.org/2000/svg" viewBox="0 0 134.15 134.15"><defs><style>.cls-1{fill:#fff;}.cls-2{fill:none;stroke:#fff;stroke-miterlimit:10;stroke-width:4px;}</style></defs><g id="Layer_2" data-name="Layer 2"><g id="Layer_1-2" data-name="Layer 1"><path class="cls-1" d="M70.29,97H57.63v-44h12.6v5l.14,0c.08-.17.17-.35.24-.53a6.58,6.58,0,0,1,4.72-3.93A21,21,0,0,1,85.9,53.4c4.63,1.14,7.22,4.37,8.27,8.8a39.49,39.49,0,0,1,1.19,8.51c.16,8.47.06,17,.07,25.43,0,.26,0,.51-.06.83H82.7V95.68c0-7.72,0-15.45,0-23.18a12.14,12.14,0,0,0-.37-3,4.7,4.7,0,0,0-4.14-3.66,12.56,12.56,0,0,0-3.41,0A5,5,0,0,0,70.5,70.1a19.21,19.21,0,0,0-.2,2.74c0,7.59,0,15.19,0,22.78Z"/><path class="cls-1" d="M38.76,52.93H51.37V97H38.76Z"/><path class="cls-1" d="M51.43,43.56a6.37,6.37,0,1,1-6.35-6.4A6.25,6.25,0,0,1,51.43,43.56Z"/><circle class="cls-2" cx="67.08" cy="67.08" r="65.08"/></g></g></svg>