<svg xmlns="http://www.w3.org/2000/svg" viewBox="0 0 134.15 134.15"><defs><style>.cls-1{fill:none;stroke:#fff;stroke-miterlimit:10;stroke-width:4px;}.cls-2{fill:#fff;}</style></defs><g id="Layer_2" data-name="Layer 2"><g id="Layer_1-2" data-name="Layer 1"><circle class="cls-1" cx="67.08" cy="67.08" r="65.08"/><path class="cls-2" d="M55.4,64.57l-4.67,5.27c-3,3.4-6,6.79-9,10.22A3.31,3.31,0,0,0,41,81.42c.65.45,1-.23,1.41-.56C47.71,76.42,53,72,58.28,67.5l.73-.61c1.45.91,2.83,1.86,4.28,2.68a7.65,7.65,0,0,0,8,0c1.43-.81,2.78-1.74,4.25-2.66L79.23,70c4.29,3.62,8.58,7.25,12.89,10.85a5.56,5.56,0,0,0,1.38.61,5.32,5.32,0,0,0-.64-1.36c-4.37-5-8.78-9.91-13.18-14.87l-.59-.68a5,5,0,0,1,.48-.38q10.14-6.9,20.29-13.77a20.3,20.3,0,0,1,2-1.21c.85-.41,1.17-.18,1.17.75,0,3.57,0,7.15,0,10.72V85.06a4.1,4.1,0,0,1-4.15,4.15H35.62a4.38,4.38,0,0,1-4.5-4.51q0-16.94,0-33.88a8.54,8.54,0,0,1,.34-1.7,6.5,6.5,0,0,1,1.81.57C38.2,53,43.08,56.29,48,59.58c2.22,1.5,4.46,3,6.69,4.46C54.89,64.19,55.12,64.36,55.4,64.57Z"/><path class="cls-2" d="M67.22,45H99.71a10.33,10.33,0,0,1,1.47.06c1.22.17,1.63,1.12.83,2.09a5.44,5.44,0,0,1-1.62,1.26c-3.27,1.81-6.56,3.58-9.85,5.36C84.27,57.14,78,60.52,71.74,64a8.63,8.63,0,0,1-8.93,0C53.3,58.77,43.75,53.62,34.23,48.43a5.29,5.29,0,0,1-1.6-1.14,2.08,2.08,0,0,1-.41-1.56c.08-.33.76-.58,1.22-.71A4.87,4.87,0,0,1,34.82,45Z"/></g></g></svg>