<svg xmlns="http://www.w3.org/2000/svg" viewBox="0 0 62.94 69.71"><defs><style>.cls-1{fill:#01092b;}</style></defs><g id="Layer_2" data-name="Layer 2"><g id="Layer_1-2" data-name="Layer 1"><path class="cls-1" d="M0,49.93a4.36,4.36,0,0,0,.28-.84c.53-4.29,2.07-8.08,5.44-11A19.63,19.63,0,0,1,13.8,34c2.42-.62,4.9-1,7.35-1.44a1.59,1.59,0,0,1,.89.1,16.36,16.36,0,0,0,12.78.6l.34-.09a16.64,16.64,0,0,0,12.6,25.1c-.18,1.1-.35,2.2-.53,3.31-.29,1.78-.61,3.57-.88,5.36a.79.79,0,0,1-.7.79,67.12,67.12,0,0,1-10.73,1.69,3.55,3.55,0,0,0-.8.26H24.17a2.64,2.64,0,0,0-.69-.26,67.16,67.16,0,0,1-10.91-1.73.69.69,0,0,1-.6-.66c-.26-1.68-.54-3.36-.81-5l-1-6H10v10.9a2.1,2.1,0,0,1-.41-.07,35.12,35.12,0,0,1-9-4.17A3.69,3.69,0,0,0,0,62.41Z"/><path class="cls-1" d="M31.34,0a2.14,2.14,0,0,0,.54.28,15.25,15.25,0,1,1-5.47,0A2.14,2.14,0,0,0,27,0Z"/><path class="cls-1" d="M62.94,44c-.1.15-.25.28-.28.45a13.59,13.59,0,1,1,0-5.22,2.07,2.07,0,0,0,.29.52ZM60.1,38.39a1.93,1.93,0,0,0-.22-.62A20.8,20.8,0,0,0,58.19,36c-.47-.43-1-.31-1.46.15-2.44,2.32-4.91,4.6-7.37,6.89-.94.88-1.49.88-2.44,0-1.19-1.12-2.4-2.22-3.57-3.37a.86.86,0,0,0-1.29-.11,22.09,22.09,0,0,0-1.83,1.79c-.42.48-.38.93.13,1.43,2.24,2.17,4.44,4.39,6.65,6.59.78.77,1,.8,1.82.06Q54.28,44.17,59.71,39A4.31,4.31,0,0,0,60.1,38.39Z"/><path class="cls-1" d="M48.34,58.3a17,17,0,0,0,9.25-2.21v4.73c0,2.1,0,2.18-1.88,3.09-2.19,1-4.45,1.93-6.69,2.87a4.68,4.68,0,0,1-.68.19Z"/></g></g></svg>