<svg width="317" height="67" viewBox="0 0 317 67" fill="none" xmlns="http://www.w3.org/2000/svg">
<path d="M315.211 29.885L304.664 31.0355C304.366 29.9702 303.844 28.9688 303.098 28.0313C302.374 27.0938 301.394 26.3374 300.158 25.7621C298.922 25.1868 297.409 24.8992 295.619 24.8992C293.212 24.8992 291.188 25.4212 289.547 26.4652C287.928 27.5092 287.129 28.8622 287.15 30.5242C287.129 31.9517 287.651 33.1129 288.716 34.0078C289.803 34.9027 291.592 35.6378 294.085 36.2131L302.459 38.0028C307.104 39.0043 310.556 40.5916 312.814 42.7649C315.094 44.9382 316.244 47.7827 316.266 51.2983C316.244 54.3878 315.339 57.1151 313.549 59.4801C311.781 61.8239 309.32 63.6563 306.166 64.9773C303.013 66.2983 299.391 66.9588 295.3 66.9588C289.291 66.9588 284.455 65.7017 280.79 63.1875C277.125 60.652 274.941 57.1257 274.238 52.6087L285.52 51.522C286.031 53.7379 287.118 55.4105 288.78 56.5398C290.442 57.669 292.605 58.2337 295.268 58.2337C298.016 58.2337 300.222 57.669 301.884 56.5398C303.567 55.4105 304.409 54.0149 304.409 52.353C304.409 50.9467 303.865 49.7855 302.779 48.8693C301.713 47.9531 300.051 47.25 297.793 46.76L289.419 45.0021C284.71 44.022 281.227 42.3707 278.968 40.0483C276.71 37.7046 275.591 34.7429 275.612 31.1634C275.591 28.1378 276.411 25.5171 278.073 23.3011C279.757 21.0639 282.09 19.3381 285.073 18.1236C288.077 16.8878 291.539 16.2699 295.46 16.2699C301.212 16.2699 305.74 17.495 309.043 19.9453C312.367 22.3956 314.423 25.7088 315.211 29.885Z" fill="black"/>
<path d="M265.241 0.545471V24.6435H256.42V0.545471H265.241Z" fill="black"/>
<path d="M218.779 66.8629C214.923 66.8629 211.471 65.8722 208.424 63.8906C205.377 61.9091 202.969 59.0327 201.201 55.2614C199.432 51.4901 198.548 46.9091 198.548 41.5185C198.548 36.0639 199.443 31.4617 201.233 27.7117C203.044 23.9404 205.484 21.0959 208.552 19.1783C211.62 17.2394 215.04 16.2699 218.811 16.2699C221.687 16.2699 224.053 16.76 225.906 17.7401C227.76 18.6989 229.23 19.8601 230.317 21.2237C231.403 22.5661 232.245 23.8338 232.842 25.027H233.321V0.545471H244.923V66H233.545V58.2656H232.842C232.245 59.4588 231.382 60.7266 230.253 62.0689C229.124 63.3899 227.632 64.5192 225.778 65.4567C223.925 66.3942 221.592 66.8629 218.779 66.8629ZM222.007 57.3708C224.457 57.3708 226.545 56.7102 228.271 55.3892C229.997 54.0469 231.307 52.1825 232.202 49.7962C233.097 47.4098 233.545 44.6293 233.545 41.4546C233.545 38.2798 233.097 35.5206 232.202 33.1769C231.329 30.8331 230.029 29.0114 228.303 27.7117C226.599 26.4119 224.5 25.7621 222.007 25.7621C219.429 25.7621 217.277 26.4333 215.551 27.7756C213.825 29.1179 212.526 30.9716 211.652 33.3367C210.778 35.7017 210.342 38.4077 210.342 41.4546C210.342 44.5227 210.778 47.2607 211.652 49.6683C212.547 52.0547 213.857 53.9404 215.583 55.3253C217.33 56.6889 219.472 57.3708 222.007 57.3708Z" fill="black"/>
<path d="M157.288 37.2358V66H145.718V16.9091H156.776V25.2507H157.352C158.481 22.5021 160.281 20.3182 162.753 18.6989C165.246 17.0796 168.325 16.2699 171.989 16.2699C175.377 16.2699 178.328 16.9943 180.842 18.4432C183.378 19.8921 185.338 21.9908 186.723 24.7394C188.129 27.4879 188.822 30.8225 188.8 34.7429V66H177.231V36.5327C177.231 33.2514 176.379 30.684 174.674 28.8303C172.991 26.9766 170.658 26.0497 167.675 26.0497C165.651 26.0497 163.85 26.4972 162.273 27.3921C160.718 28.2656 159.493 29.5334 158.598 31.1953C157.724 32.8573 157.288 34.8707 157.288 37.2358Z" fill="black"/>
<path d="M108.165 66.9908C105.054 66.9908 102.252 66.4368 99.7592 65.3288C97.2876 64.1996 95.3274 62.5377 93.8785 60.3431C92.451 58.1484 91.7372 55.4425 91.7372 52.2252C91.7372 49.4553 92.2486 47.1648 93.2713 45.3537C94.294 43.5426 95.6896 42.0938 97.4581 41.0071C99.2265 39.9205 101.219 39.1002 103.435 38.5462C105.672 37.9709 107.984 37.5554 110.37 37.2997C113.246 37.0014 115.58 36.7351 117.369 36.5007C119.159 36.245 120.459 35.8615 121.268 35.3502C122.099 34.8175 122.515 33.9972 122.515 32.8892V32.6975C122.515 30.2898 121.801 28.4254 120.374 27.1044C118.946 25.7834 116.89 25.1229 114.205 25.1229C111.371 25.1229 109.124 25.7408 107.462 26.9766C105.821 28.2124 104.713 29.6719 104.138 31.3551L93.3352 29.821C94.1875 26.8381 95.5937 24.3452 97.5539 22.3423C99.5142 20.3182 101.911 18.8054 104.745 17.804C107.579 16.7813 110.711 16.2699 114.141 16.2699C116.506 16.2699 118.861 16.5469 121.205 17.1009C123.548 17.6548 125.69 18.571 127.629 19.8494C129.567 21.1065 131.123 22.8217 132.295 24.995C133.488 27.1683 134.084 29.885 134.084 33.1449V66H122.962V59.2564H122.579C121.876 60.62 120.885 61.8985 119.607 63.0916C118.349 64.2635 116.762 65.2117 114.844 65.9361C112.948 66.6392 110.722 66.9908 108.165 66.9908ZM111.169 58.4894C113.491 58.4894 115.505 58.0313 117.209 57.1151C118.914 56.1776 120.224 54.9418 121.141 53.4077C122.078 51.8736 122.547 50.201 122.547 48.3899V42.6051C122.185 42.9034 121.567 43.1804 120.693 43.4361C119.841 43.6918 118.882 43.9155 117.817 44.1073C116.751 44.299 115.697 44.4695 114.653 44.6186C113.609 44.7678 112.703 44.8956 111.936 45.0021C110.21 45.2365 108.665 45.62 107.302 46.1527C105.938 46.6854 104.862 47.4311 104.074 48.3899C103.285 49.3274 102.891 50.5419 102.891 52.0334C102.891 54.1641 103.669 55.7727 105.224 56.8594C106.78 57.946 108.761 58.4894 111.169 58.4894Z" fill="black"/>
<path d="M59.2336 66V16.9091H70.4517V25.0909H70.963C71.8579 22.2571 73.392 20.0732 75.5653 18.5391C77.7599 16.9837 80.2635 16.206 83.076 16.206C83.7152 16.206 84.429 16.238 85.2173 16.3019C86.027 16.3445 86.6981 16.4191 87.2308 16.5256V27.1684C86.7407 26.9979 85.963 26.8487 84.8977 26.7209C83.8537 26.5718 82.8416 26.4972 81.8615 26.4972C79.7521 26.4972 77.8558 26.9553 76.1726 27.8715C74.5106 28.7664 73.2003 30.0128 72.2415 31.6108C71.2826 33.2088 70.8032 35.0519 70.8032 37.1399V66H59.2336Z" fill="black"/>
<path d="M0.594604 66V0.545471H25.6514C30.3815 0.545471 34.3126 1.29121 37.4447 2.78269C40.5982 4.25286 42.9526 6.26635 44.508 8.82317C46.0847 11.38 46.873 14.2777 46.873 17.5164C46.873 20.1797 46.3617 22.4595 45.3389 24.3558C44.3162 26.2308 42.9419 27.7543 41.2161 28.9262C39.4902 30.098 37.5619 30.9396 35.4313 31.451V32.0902C37.7537 32.2181 39.9803 32.9318 42.1109 34.2316C44.2629 35.51 46.0207 37.321 47.3844 39.6648C48.748 42.0085 49.4298 44.8423 49.4298 48.1662C49.4298 51.554 48.6095 54.6009 46.9689 57.3068C45.3283 59.9915 42.8567 62.1115 39.5541 63.6669C36.2516 65.2223 32.0967 66 27.0896 66H0.594604ZM12.4518 56.0924H25.204C29.508 56.0924 32.6081 55.272 34.5044 53.6314C36.422 51.9695 37.3808 49.8388 37.3808 47.2394C37.3808 45.3004 36.9014 43.5533 35.9426 41.9979C34.9838 40.4212 33.6202 39.1854 31.8517 38.2905C30.0832 37.3743 27.9739 36.9162 25.5236 36.9162H12.4518V56.0924ZM12.4518 28.3828H24.1813C26.2267 28.3828 28.0697 28.01 29.7104 27.2642C31.351 26.4972 32.6401 25.4212 33.5776 24.0362C34.5364 22.63 35.0158 20.9681 35.0158 19.0504C35.0158 16.5149 34.1209 14.4269 32.3311 12.7862C30.5626 11.1456 27.9313 10.3253 24.4369 10.3253H12.4518V28.3828Z" fill="black"/>
</svg>
