<svg xmlns="http://www.w3.org/2000/svg" viewBox="0 0 73.95 70.44"><defs><style>.cls-1{fill:#01092b;}</style></defs><g id="Layer_2" data-name="Layer 2"><g id="Layer_1-2" data-name="Layer 1"><path class="cls-1" d="M52.75,70.44H21c0-.35-.08-.66-.08-1q0-4.27.05-8.55a3.85,3.85,0,0,0,0-.48.58.58,0,0,0-.6-.55,4.87,4.87,0,0,0-.54,0H14.13a6.47,6.47,0,0,1-2.85-.6,7.93,7.93,0,0,1-1.93-1.18,5.57,5.57,0,0,1-1.67-2.23c0-.09-.07-.19-.12-.28a5.28,5.28,0,0,1-.67-2.89c0-3.11,0-6.21,0-9.32A1.24,1.24,0,0,0,6.11,42c-.6-.27-1.19-.55-1.82-.77a17.76,17.76,0,0,1-2.21-.92,3.43,3.43,0,0,1-1.56-5c.5-.94,1.13-1.8,1.69-2.7l2.15-3.4c.43-.67.87-1.34,1.31-2A12.45,12.45,0,0,0,6.76,25.5a11.16,11.16,0,0,0,.59-2.07c.17-.7.26-1.42.42-2.12.12-.53.29-1,.45-1.56s.26-.8.4-1.19.36-.89.54-1.34l.36-.82a2.7,2.7,0,0,1,.14-.4,38.53,38.53,0,0,1,2.17-3.73c.77-1,1.49-2,2.31-3A17.77,17.77,0,0,1,16.23,7.2c1.09-.93,2.23-1.83,3.4-2.67a19.45,19.45,0,0,1,2.13-1.21L22.39,3c.34-.18.67-.35,1-.51l1-.45.1-.06c1.07-.39,2.13-.8,3.21-1.16a1.66,1.66,0,0,1,.83,0c.39.08.48.42.21.73a1,1,0,0,1-.23.18,6.89,6.89,0,0,0-2.69,2.85,8.64,8.64,0,0,0-1.16,4.78,11,11,0,0,0,1,3.45,3.23,3.23,0,0,0,.37.54,1.07,1.07,0,0,1,0,1.35,10.6,10.6,0,0,0-1.11,2.39,3.37,3.37,0,0,0-.26,1.22,8.85,8.85,0,0,0,.55,4.25,9.6,9.6,0,0,0,2.22,3.24,7,7,0,0,0,2.4,1.56,6.51,6.51,0,0,1,.72.31,4.54,4.54,0,0,0,1.74.42c.66,0,1.32,0,2,.13a5,5,0,0,1,1.37.4,5.34,5.34,0,0,1,1.43.86,4.8,4.8,0,0,1,1.6,3.5c0,.38,0,.76,0,1.15a5.47,5.47,0,0,0,.49,2.21,1.36,1.36,0,0,1,.11.28,8.78,8.78,0,0,0,1.22,2.85,9.86,9.86,0,0,0,1,1.43,10.93,10.93,0,0,0,3.16,2.83A8.17,8.17,0,0,0,47.52,45c.54.08,1,.44,1.59.52a20.19,20.19,0,0,0,2.69.22c1.32,0,2.65,0,4-.05a3.66,3.66,0,0,1,.66,0c.59.12.75.51.4,1a10.72,10.72,0,0,0-.62.88c-.46.77-.9,1.56-1.35,2.34a.47.47,0,0,0,0,.1c-.28,1.13-.93,2.13-1.12,3.3-.15.9-.4,1.79-.56,2.7a11.55,11.55,0,0,0-.21,2c0,3.71,0,7.42,0,11.13A2.83,2.83,0,0,1,52.75,70.44Z"/><path class="cls-1" d="M45.73,30.34c0-1,0-2,0-2.95a7.77,7.77,0,0,0-.08-.83,1.29,1.29,0,0,0-.68-.94,12.5,12.5,0,0,1-3.84-3.82c-.46-.75-.89-1.52-1.34-2.27a.54.54,0,0,1-.05-.11A16.88,16.88,0,0,1,38.67,15c0-1.06,0-2.12.1-3.18A5.31,5.31,0,0,1,39,10.77c.17-.62.36-1.23.55-1.85a2.58,2.58,0,0,1,.14-.39,15.22,15.22,0,0,1,3.43-4.81,15.49,15.49,0,0,1,2.35-1.86A11.83,11.83,0,0,1,49.64.25,21.49,21.49,0,0,1,54.31,0a13.5,13.5,0,0,1,3.75.75l.11,0a25.46,25.46,0,0,1,3.6,2.25,15.61,15.61,0,0,1,3,3.45,8.33,8.33,0,0,1,1.34,2.8,3,3,0,0,0,.17.58,12,12,0,0,1,.6,5.5A8.13,8.13,0,0,1,66.35,18c-.13.34-.19.7-.32,1a6.41,6.41,0,0,1-.41.93c-.39.67-.78,1.35-1.19,2a11.6,11.6,0,0,1-2.54,2.78c-.44.35-.9.67-1.36,1a1.35,1.35,0,0,0-.63,1.16c0,.52,0,1,0,1.56,0,1.43,0,2.85,0,4.27a5.86,5.86,0,0,1-2.6,4.9A4.94,4.94,0,0,1,54,38.72c-.9-.06-1.8,0-2.71,0a3.84,3.84,0,0,1-1.89-.5,8.57,8.57,0,0,1-1.75-1.13,7.55,7.55,0,0,1-1.7-2.67,2.89,2.89,0,0,1-.19-1.06c0-1,0-2,0-3ZM52.92,21a4.33,4.33,0,0,0,2.56-.61,1.17,1.17,0,0,1,.28-.11A5.7,5.7,0,0,0,58,18.55a8.26,8.26,0,0,0,1.12-1.9,6.55,6.55,0,0,0,.51-3.57A8,8,0,0,0,59,11a4.91,4.91,0,0,0-1.4-2,6.88,6.88,0,0,0-4.65-1.95A5.48,5.48,0,0,0,51,7.3a8.89,8.89,0,0,0-2.76,1.4A7.51,7.51,0,0,0,46,12.36a6.61,6.61,0,0,0-.06,3.16,4.45,4.45,0,0,0,.28.85c.09.22.24.42.31.65a4.49,4.49,0,0,0,1.33,2A6.85,6.85,0,0,0,52.92,21Z"/><path class="cls-1" d="M74,8.7a1.94,1.94,0,0,1-1.8,2,2.05,2.05,0,0,1-1.89-1.91,2,2,0,0,1,1.87-1.91A1.88,1.88,0,0,1,74,8.7Z"/><path class="cls-1" d="M72.15,17.44a1.88,1.88,0,0,1,0,3.75,2.05,2.05,0,0,1-1.86-1.93C70.25,18.49,71.28,17.33,72.15,17.44Z"/><path class="cls-1" d="M33.39,10.54a2,2,0,0,1-1.82-1.83A2,2,0,0,1,33.42,6.9a2.05,2.05,0,0,1,1.79,1.81A2,2,0,0,1,33.39,10.54Z"/><path class="cls-1" d="M33.37,17.52a2,2,0,0,1,1.79,1.79,2,2,0,0,1-1.75,1.77,2,2,0,0,1-1.79-1.79A2,2,0,0,1,33.37,17.52Z"/></g></g></svg>