<svg xmlns="http://www.w3.org/2000/svg" viewBox="0 0 62.8 69.71"><defs><style>.cls-1{fill:#01092b;}</style></defs><g id="Layer_2" data-name="Layer 2"><g id="Layer_1-2" data-name="Layer 1"><path class="cls-1" d="M62.8,58.9l-3.75-.43q-4.15-.47-8.31-1c-.27,0-.29.14-.34.32-.55,1.84-1.09,3.68-1.64,5.53s-1.17,4-1.76,6c0,.1-.06.19-.13.37-.12-.2-.21-.33-.29-.47q-5.51-9.55-11-19.12a.7.7,0,0,0-.82-.42,22.57,22.57,0,0,1-5.63-.06.63.63,0,0,0-.7.34q-5.82,9.2-11.68,18.39c-.06.11-.14.21-.26.39-.07-.19-.12-.31-.16-.43q-1.77-5.46-3.52-10.9c-.11-.32-.23-.39-.55-.35L.64,58.73,0,58.8,13,40.85l-.25-.33A24.49,24.49,0,0,1,7.48,21.31a25,25,0,1,1,44,19.52.5.5,0,0,0-.05.73Q57,50,62.54,58.48ZM32.19,4.28A20.64,20.64,0,1,0,52.93,24.77,20.72,20.72,0,0,0,32.19,4.28ZM25.37,48.9a25.25,25.25,0,0,1-9.84-5.4L7.14,54.63c.24,0,.39,0,.53-.07,2.28-.41,4.56-.82,6.83-1.25.27-.05.39,0,.5.26.77,2,1.56,4.08,2.34,6.12L18,61.27Zm23.55-5.43a25.19,25.19,0,0,1-9.83,5.43L46,61.55c.07-.26.11-.4.14-.53.57-2.25,1.14-4.49,1.69-6.74.07-.24.15-.34.42-.32l6,.37,2.24.12Z"/><path class="cls-1" d="M14.63,24.92A17.59,17.59,0,1,1,32.22,42.45,17.57,17.57,0,0,1,14.63,24.92Zm29.91-2.83,0-.09h-.42l-8.25,0a.51.51,0,0,1-.58-.41c-.83-2.55-1.68-5.09-2.53-7.63,0-.12-.09-.24-.17-.43-.07.2-.12.32-.16.43q-1.26,3.78-2.51,7.56c-.11.35-.25.49-.64.48L21,22h-.41a.81.81,0,0,0,.3.33c2.22,1.56,4.43,3.12,6.66,4.66a.54.54,0,0,1,.25.73c-.88,2.53-1.73,5.07-2.58,7.61,0,.12-.08.24-.13.42.15-.09.24-.14.32-.2,2.26-1.6,4.53-3.2,6.79-4.82a.49.49,0,0,1,.68,0c2.08,1.49,4.18,3,6.27,4.45l.85.59-.19-.59c-.85-2.51-1.7-5-2.56-7.54a.44.44,0,0,1,.19-.61l6.08-4.25Z"/></g></g></svg>