<svg id="Layer_1" data-name="Layer 1" xmlns="http://www.w3.org/2000/svg" viewBox="0 0 100 100"><defs><style>.cls-1{fill:#f60;}.cls-2{fill:#fff;}</style></defs><rect class="cls-1" width="100" height="100" rx="3.94"/><path class="cls-2" d="M7.79,63.86,20.14,36.14h6.34L38.87,63.86H32.14L22,39.39h2.54L14.36,63.86ZM14,57.92l1.71-4.87H29.92l1.75,4.87Z"/><path class="cls-2" d="M54.75,64.34a16.84,16.84,0,0,1-6-1.06,14,14,0,0,1-4.79-3,13.67,13.67,0,0,1-3.17-4.55,15.14,15.14,0,0,1,0-11.48,13.72,13.72,0,0,1,3.19-4.56,14.4,14.4,0,0,1,4.83-3,18.37,18.37,0,0,1,12.73.18,13.07,13.07,0,0,1,5,3.57l-4.12,3.8a10,10,0,0,0-3.28-2.36,9.74,9.74,0,0,0-3.88-.77,10.35,10.35,0,0,0-3.69.63,8.08,8.08,0,0,0-4.73,4.64,9.46,9.46,0,0,0-.65,3.6,9.36,9.36,0,0,0,.65,3.56,8.39,8.39,0,0,0,1.86,2.83,8.26,8.26,0,0,0,2.85,1.85,10.06,10.06,0,0,0,3.63.63,11.4,11.4,0,0,0,3.7-.62,10.39,10.39,0,0,0,3.5-2.07L66,60.81a17,17,0,0,1-5.25,2.61A20.27,20.27,0,0,1,54.75,64.34ZM60.09,60V49.56H66V60.81Z"/><path class="cls-2" d="M71.9,63.86V36.14h6.41V58.63h13.9v5.23Z"/></svg>