<svg width="375" height="70" viewBox="0 0 375 70" fill="none" xmlns="http://www.w3.org/2000/svg">
<path d="M374.863 3.54547V69H363.293V3.54547H374.863Z" fill="black"/>
<path d="M325.74 69.9908C322.629 69.9908 319.827 69.4368 317.334 68.3288C314.863 67.1996 312.903 65.5377 311.454 63.3431C310.026 61.1484 309.312 58.4425 309.312 55.2252C309.312 52.4553 309.824 50.1648 310.846 48.3537C311.869 46.5426 313.265 45.0938 315.033 44.0071C316.802 42.9205 318.794 42.1002 321.01 41.5462C323.247 40.9709 325.559 40.5554 327.945 40.2997C330.822 40.0014 333.155 39.7351 334.944 39.5007C336.734 39.245 338.034 38.8615 338.844 38.3502C339.675 37.8175 340.09 36.9972 340.09 35.8892V35.6975C340.09 33.2898 339.376 31.4254 337.949 30.1044C336.521 28.7834 334.465 28.1229 331.78 28.1229C328.947 28.1229 326.699 28.7408 325.037 29.9766C323.396 31.2124 322.288 32.6719 321.713 34.3551L310.91 32.821C311.763 29.8381 313.169 27.3452 315.129 25.3423C317.089 23.3182 319.486 21.8054 322.32 20.804C325.154 19.7813 328.286 19.2699 331.716 19.2699C334.082 19.2699 336.436 19.5469 338.78 20.1009C341.123 20.6548 343.265 21.571 345.204 22.8494C347.143 24.1065 348.698 25.8217 349.87 27.995C351.063 30.1683 351.66 32.885 351.66 36.1449V69H340.538V62.2564H340.154C339.451 63.62 338.46 64.8985 337.182 66.0916C335.925 67.2635 334.337 68.2117 332.42 68.9361C330.523 69.6392 328.297 69.9908 325.74 69.9908ZM328.744 61.4894C331.067 61.4894 333.08 61.0313 334.785 60.1151C336.489 59.1776 337.8 57.9418 338.716 56.4077C339.653 54.8736 340.122 53.201 340.122 51.3899V45.6051C339.76 45.9034 339.142 46.1804 338.268 46.4361C337.416 46.6918 336.457 46.9155 335.392 47.1073C334.327 47.299 333.272 47.4695 332.228 47.6186C331.184 47.7678 330.278 47.8956 329.511 48.0021C327.785 48.2365 326.241 48.62 324.877 49.1527C323.513 49.6854 322.437 50.4311 321.649 51.3899C320.861 52.3274 320.466 53.5419 320.466 55.0334C320.466 57.1641 321.244 58.7727 322.8 59.8594C324.355 60.946 326.337 61.4894 328.744 61.4894Z" fill="black"/>
<path d="M288.147 69V19.9091H299.716V69H288.147ZM293.963 12.9418C292.131 12.9418 290.554 12.3345 289.233 11.12C287.912 9.88425 287.252 8.40342 287.252 6.67757C287.252 4.93041 287.912 3.44959 289.233 2.2351C290.554 0.999305 292.131 0.381409 293.963 0.381409C295.817 0.381409 297.394 0.999305 298.694 2.2351C300.015 3.44959 300.675 4.93041 300.675 6.67757C300.675 8.40342 300.015 9.88425 298.694 11.12C297.394 12.3345 295.817 12.9418 293.963 12.9418Z" fill="black"/>
<path d="M278.471 19.9091V28.8579H250.25V19.9091H278.471ZM257.217 8.14771H268.787V54.2344C268.787 55.7897 269.021 56.9829 269.49 57.8139C269.98 58.6236 270.619 59.1775 271.408 59.4758C272.196 59.7741 273.069 59.9233 274.028 59.9233C274.753 59.9233 275.413 59.87 276.01 59.7635C276.628 59.6569 277.096 59.5611 277.416 59.4758L279.366 68.5206C278.748 68.7336 277.863 68.968 276.713 69.2237C275.584 69.4794 274.199 69.6285 272.558 69.6711C269.66 69.7564 267.05 69.3196 264.728 68.3608C262.405 67.3807 260.562 65.8679 259.199 63.8224C257.856 61.777 257.196 59.2202 257.217 56.152V8.14771Z" fill="black"/>
<path d="M210.683 40.2358V69H199.113V19.9091H210.172V28.2507H210.747C211.876 25.5021 213.677 23.3182 216.148 21.6989C218.641 20.0796 221.72 19.2699 225.385 19.2699C228.773 19.2699 231.724 19.9943 234.238 21.4432C236.773 22.8921 238.734 24.9908 240.118 27.7394C241.525 30.4879 242.217 33.8225 242.196 37.7429V69H230.626V39.5327C230.626 36.2514 229.774 33.684 228.069 31.8303C226.386 29.9766 224.053 29.0497 221.07 29.0497C219.046 29.0497 217.246 29.4972 215.669 30.3921C214.114 31.2656 212.888 32.5334 211.993 34.1953C211.12 35.8573 210.683 37.8707 210.683 40.2358Z" fill="black"/>
<path d="M167.497 69.9588C162.575 69.9588 158.324 68.9361 154.745 66.8906C151.186 64.8239 148.449 61.9048 146.531 58.1335C144.613 54.3409 143.655 49.8771 143.655 44.7422C143.655 39.6925 144.613 35.2607 146.531 31.4467C148.47 27.6115 151.176 24.6286 154.649 22.4979C158.122 20.3459 162.202 19.2699 166.89 19.2699C169.915 19.2699 172.77 19.76 175.455 20.7401C178.161 21.6989 180.547 23.1904 182.614 25.2145C184.702 27.2386 186.343 29.8168 187.536 32.9489C188.729 36.0597 189.326 39.7671 189.326 44.071V47.6186H149.088V39.8203H178.235C178.214 37.6044 177.735 35.6335 176.797 33.9077C175.86 32.1605 174.549 30.7862 172.866 29.7848C171.204 28.7834 169.265 28.2827 167.049 28.2827C164.684 28.2827 162.607 28.858 160.817 30.0085C159.027 31.1378 157.632 32.6293 156.63 34.483C155.65 36.3154 155.15 38.3288 155.128 40.5234V47.331C155.128 50.1861 155.65 52.6364 156.694 54.6818C157.738 56.706 159.198 58.2614 161.073 59.348C162.948 60.4134 165.142 60.946 167.657 60.946C169.34 60.946 170.863 60.7117 172.227 60.2429C173.591 59.7529 174.773 59.0391 175.775 58.1016C176.776 57.1641 177.532 56.0029 178.044 54.6179L188.846 55.8324C188.164 58.6875 186.865 61.1804 184.947 63.3111C183.051 65.4205 180.622 67.0611 177.66 68.233C174.699 69.3835 171.311 69.9588 167.497 69.9588Z" fill="black"/>
<path d="M136.615 19.9091V28.8579H108.394V19.9091H136.615ZM115.362 8.14771H126.931V54.2344C126.931 55.7897 127.166 56.9829 127.634 57.8139C128.125 58.6236 128.764 59.1775 129.552 59.4758C130.34 59.7741 131.214 59.9233 132.173 59.9233C132.897 59.9233 133.558 59.87 134.154 59.7635C134.772 59.6569 135.241 59.5611 135.561 59.4758L137.51 68.5206C136.892 68.7336 136.008 68.968 134.857 69.2237C133.728 69.4794 132.343 69.6285 130.703 69.6711C127.805 69.7564 125.195 69.3196 122.872 68.3608C120.55 67.3807 118.707 65.8679 117.343 63.8224C116.001 61.777 115.34 59.2202 115.362 56.152V8.14771Z" fill="black"/>
<path d="M78.7593 69.9588C73.9653 69.9588 69.8104 68.9041 66.2948 66.7948C62.7792 64.6854 60.0519 61.7344 58.113 57.9418C56.1954 54.1492 55.2366 49.7173 55.2366 44.6463C55.2366 39.5753 56.1954 35.1328 58.113 31.3189C60.0519 27.505 62.7792 24.5433 66.2948 22.434C69.8104 20.3246 73.9653 19.2699 78.7593 19.2699C83.5533 19.2699 87.7082 20.3246 91.2238 22.434C94.7394 24.5433 97.456 27.505 99.3736 31.3189C101.313 35.1328 102.282 39.5753 102.282 44.6463C102.282 49.7173 101.313 54.1492 99.3736 57.9418C97.456 61.7344 94.7394 64.6854 91.2238 66.7948C87.7082 68.9041 83.5533 69.9588 78.7593 69.9588ZM78.8232 60.6903C81.4227 60.6903 83.596 59.9766 85.3431 58.549C87.0903 57.1002 88.39 55.1612 89.2423 52.7323C90.1158 50.3033 90.5526 47.5973 90.5526 44.6144C90.5526 41.6101 90.1158 38.8935 89.2423 36.4645C88.39 34.0142 87.0903 32.0646 85.3431 30.6158C83.596 29.1669 81.4227 28.4425 78.8232 28.4425C76.1599 28.4425 73.944 29.1669 72.1755 30.6158C70.4283 32.0646 69.118 34.0142 68.2444 36.4645C67.3921 38.8935 66.966 41.6101 66.966 44.6144C66.966 47.5973 67.3921 50.3033 68.2444 52.7323C69.118 55.1612 70.4283 57.1002 72.1755 58.549C73.944 59.9766 76.1599 60.6903 78.8232 60.6903Z" fill="black"/>
<path d="M0.640503 69V3.54547H25.186C30.2144 3.54547 34.4331 4.48297 37.8422 6.35797C41.2726 8.23297 43.8614 10.8111 45.6085 14.0923C47.377 17.3523 48.2612 21.0597 48.2612 25.2145C48.2612 29.412 47.377 33.1406 45.6085 36.4006C43.8401 39.6605 41.23 42.228 37.7783 44.103C34.3266 45.9567 30.0759 46.8835 25.0262 46.8835H8.7584V37.1357H23.4281C26.3685 37.1357 28.7762 36.6243 30.6512 35.6016C32.5262 34.5789 33.9111 33.1726 34.806 31.3828C35.7222 29.5931 36.1803 27.537 36.1803 25.2145C36.1803 22.8921 35.7222 20.8466 34.806 19.0781C33.9111 17.3097 32.5155 15.9354 30.6192 14.9553C28.7442 13.9539 26.3259 13.4531 23.3642 13.4531H12.4977V69H0.640503Z" fill="black"/>
</svg>
