<svg xmlns="http://www.w3.org/2000/svg" viewBox="0 0 59.58 70.44"><defs><style>.cls-1{fill:#01092b;}</style></defs><g id="Layer_2" data-name="Layer 2"><g id="Layer_1-2" data-name="Layer 1"><path class="cls-1" d="M0,9.73,8.61,0C9.41.5,10.16,1,11,1.44c2.91,1.63,6,2.82,9.38,2.58A16.7,16.7,0,0,0,29.13.45a.87.87,0,0,1,1.26,0c3.27,2.38,6.82,4,11,3.53A20.15,20.15,0,0,0,50.11.5l.77-.5,8.7,9.81a25.89,25.89,0,0,0-2.19,2.09,9.71,9.71,0,0,0-1.59,10c.61,1.75,1.47,3.42,2,5.19,3.21,10.88,1.4,20.7-6.34,29.22A55.47,55.47,0,0,1,34,68.72c-1.2.58-2.42,1.1-3.66,1.59a1.64,1.64,0,0,1-1.11.06c-8-3.26-15.26-7.64-21.16-14.06A28.38,28.38,0,0,1,.56,32a41.6,41.6,0,0,1,3-9.7,9.7,9.7,0,0,0-.74-9.44A29.79,29.79,0,0,0,0,9.73ZM14.38,38.82l9,9L45.11,26.18l-3.68-3.75L23.3,40.63,18,35.23Z"/></g></g></svg>