<svg xmlns="http://www.w3.org/2000/svg" viewBox="0 0 80.74 47.99"><defs><style>.cls-1{fill:#01092b;}</style></defs><g id="Layer_2" data-name="Layer 2"><g id="Layer_1-2" data-name="Layer 1"><path class="cls-1" d="M35.72,40.44c.6.4,1.2.78,1.78,1.19s1.24.89,1.83,1.37c.77.62,1.51,1.28,2.27,1.92l.55.47a.36.36,0,0,1,.09.49,2.34,2.34,0,0,1-1.57,1.27,7.88,7.88,0,0,1-2.47.17,2.21,2.21,0,0,1-1.13-.57c-.6-.39-1.17-.84-1.76-1.26s-1.44-1-2.14-1.52a.81.81,0,0,1-.23-.38,3.28,3.28,0,0,0-2.18-2.12,7.88,7.88,0,0,0-1.19-.13c.11-.37.27-.79.36-1.22a5.26,5.26,0,0,0,.17-1.42,3,3,0,0,0-2.17-2.85,7.59,7.59,0,0,0-1.5-.34,3.51,3.51,0,0,0-1.07.07,8.1,8.1,0,0,0-1,.34c-.1-.37-.2-.76-.33-1.13a3,3,0,0,0-2.66-2.18,4.9,4.9,0,0,0-1.48,0,2.08,2.08,0,0,0-1.78,1.64.75.75,0,0,1-.08.14c-.24-.17-.48-.32-.71-.49l-2-1.49-2.53-1.89c-.55-.41-1.1-.82-1.66-1.22-.18-.13-.3-.23-.24-.51.21-1,.39-1.93.58-2.9.23-1.16.46-2.33.7-3.5.2-1,.42-2,.63-3,.17-.79.33-1.59.51-2.39.26-1.14.53-2.28.8-3.42.22-1,.41-1.92.69-2.87s.64-2,1-2.93c.07-.2.16-.25.4-.18,1,.33,2,.64,3,.91a5.1,5.1,0,0,0,1,.09l2.12.13c-.41.4-.77.76-1.14,1.11-.62.58-1.25,1.15-1.86,1.74s-1.14,1.12-1.69,1.69a.81.81,0,0,0-.17.39,2.69,2.69,0,0,0,.75,2.15,2.79,2.79,0,0,0,1,.63,3.41,3.41,0,0,0,1.42.29,19.94,19.94,0,0,0,2.62-.53,13.84,13.84,0,0,0,3.27-1.38c1-.58,2-1.27,3-1.89a6.21,6.21,0,0,1,1-.52c1-.39,2.05-.79,3.1-1.13a5.59,5.59,0,0,1,3.59-.16,5.26,5.26,0,0,1,1.27.77l4.75,3.16,4.22,2.84,4.84,3.22c1.42.95,2.85,1.88,4.26,2.83A29.35,29.35,0,0,1,59,25.67a18.76,18.76,0,0,1,1.87,1.91,9.18,9.18,0,0,1,1.85,2.61,5.61,5.61,0,0,1,.39,2.9A4.18,4.18,0,0,1,62,35.46a2.56,2.56,0,0,1-2.37,1,6.8,6.8,0,0,1-1.48-.43,17,17,0,0,1-2.94-1.9l-1.93-1.33-2.87-2-1.15-.79-.06.05c.07.07.13.16.2.22.59.52,1.19,1,1.76,1.56s1.22,1.17,1.78,1.79a8.57,8.57,0,0,1,1.78,2.66,4,4,0,0,1,.1,2.66A8,8,0,0,1,54,40.84a3.11,3.11,0,0,1-2.12,1.39,5.83,5.83,0,0,1-2.28,0,.64.64,0,0,1-.28-.15l-2.09-1.9-1.82-1.62L43.63,37l-.77-.66c-.2-.18-.37-.08-.61.09.44.43.87.83,1.28,1.24,1.14,1.12,2.27,2.24,3.39,3.38a22.9,22.9,0,0,1,1.56,1.71,1.81,1.81,0,0,1,.25,1.39c-.14.92-.8,1.3-1.59,1.56a9.08,9.08,0,0,1-2.65.2c-.35,0-.57-.27-.82-.46-1.13-.85-2.26-1.72-3.38-2.58-.64-.5-1.27-1-1.92-1.49a2.62,2.62,0,0,0-.5-.26c-.55-.24-1.1-.5-1.65-.72a1.34,1.34,0,0,0-.49,0Z"/><path class="cls-1" d="M64,30a10.38,10.38,0,0,0-.59-1c-.48-.64-1-1.29-1.51-1.89-.71-.8-1.43-1.6-2.21-2.33a12.53,12.53,0,0,0-1.58-1.12l-4.69-3.15-3.43-2.29-4.44-3-6-4c-.6-.4-1.19-.8-1.79-1.18a1.36,1.36,0,0,0-1.05-.17c-.45.11-.92.1-1.37.22q-1.55.41-3.09.87c-.56.18-1.12.39-1.67.61a1.16,1.16,0,0,0-.44.33A9.48,9.48,0,0,1,26.94,14c-1,.48-2.11.91-3.17,1.33a6,6,0,0,1-2.92.42,7,7,0,0,1-1.42-.32,1.41,1.41,0,0,1-1-1.33,1.21,1.21,0,0,1,.35-1c.49-.46.91-1,1.4-1.45,1-.94,2-1.86,3-2.76.78-.71,1.59-1.39,2.39-2.07.52-.44,1-.9,1.58-1.29A4.27,4.27,0,0,1,28.16,5c2.06-.73,4.12-1.44,6.18-2.16.94-.33,1.86-.69,2.8-1a17.8,17.8,0,0,1,1.79-.39l.55-.08a8.45,8.45,0,0,1,2.19.23l2.55.45,2.22.41,2.07.39c.93.18,1.86.37,2.8.54l2.8.49c.65.11,1.29.23,1.94.36a12,12,0,0,0,3.43.23,4.49,4.49,0,0,0,2.16-.67.58.58,0,0,1,.41,0,2.93,2.93,0,0,1,1.27.77,10.64,10.64,0,0,1,1.72,2c.64,1,1.29,1.94,1.87,3s1.19,2.16,1.74,3.27,1.18,2.52,1.74,3.8c.46,1,.88,2.11,1.31,3.18s.78,2.05,1.19,3.07c.09.23,0,.32-.16.42-1.1.52-2.19,1.06-3.29,1.6a1.9,1.9,0,0,0-.4.3c-.8.8-1.58,1.6-2.39,2.39-.57.55-1.16,1.08-1.74,1.61Z"/><path class="cls-1" d="M7.15,4.05l7.53,2.47c-.1.41-.2.8-.31,1.19-.2.74-.41,1.47-.6,2.2-.25.89-.48,1.79-.72,2.69-.44,1.7-.88,3.39-1.31,5.09-.32,1.3-.64,2.61-.93,3.92s-.56,2.58-.8,3.88c-.16.81-.25,1.65-.36,2.47,0,.32-.05.64-.06,1,0,.17-.05.2-.22.17-.6-.12-1.21-.21-1.81-.32l-2-.37L3.32,28l-1.71-.31L.19,27.48c-.17,0-.22-.11-.17-.25.36-1.18.74-2.36,1.1-3.54.47-1.5.92-3,1.39-4.49.33-1.07.67-2.15,1-3.23.45-1.5.89-3,1.35-4.52.33-1.09.68-2.18,1-3.28l1-3.27Z"/><path class="cls-1" d="M62.61,3l4.06-1.79L69.32,0a.29.29,0,0,1,.26,0,11.4,11.4,0,0,1,1.09,1.11,25,25,0,0,1,1.51,2c.67,1,1.3,2.11,1.92,3.19.48.84.93,1.7,1.35,2.57.5,1,1,2.06,1.44,3.1.31.69.61,1.38.89,2.07.45,1.08.89,2.17,1.31,3.27s.9,2.4,1.35,3.61a6.44,6.44,0,0,0,.25.74c.12.23,0,.3-.17.35l-2,.59-3.27,1c-.26.07-.52.16-.78.25s-.22,0-.27-.15c-.27-.88-.54-1.76-.83-2.63s-.6-1.66-.91-2.48c-.41-1.07-.84-2.13-1.26-3.2-.3-.76-.58-1.52-.9-2.27a16.48,16.48,0,0,0-.7-1.54c-.53-1-1.07-2-1.65-3-.41-.69-.89-1.35-1.37-2a13.19,13.19,0,0,0-.91-1.07A9.35,9.35,0,0,0,65,4.81,9.65,9.65,0,0,0,62.61,3Z"/><path class="cls-1" d="M29,39.4a2.23,2.23,0,0,1-.34,1.28c-.34.78-.64,1.58-1,2.35A2.24,2.24,0,0,1,26,44.19,2.5,2.5,0,0,1,23.21,43l-.43-.6a2.47,2.47,0,0,1-.27-1.6c0-.21.07-.41.08-.61a3.26,3.26,0,0,1,.66-1.39c.38-.68.8-1.36,1.19-2a.91.91,0,0,1,.77-.45A4.2,4.2,0,0,1,27.9,37,2.51,2.51,0,0,1,29,39.07Z"/><path class="cls-1" d="M16.83,38.5A5.35,5.35,0,0,1,17,37.38a5.81,5.81,0,0,1,.59-1.2c.34-.6.75-1.15,1.06-1.77A1.26,1.26,0,0,1,20,33.7a5,5,0,0,1,1.85.47,2.42,2.42,0,0,1,1.34,1.66,2.89,2.89,0,0,1,.06,1.4,6.78,6.78,0,0,1-.39,1c-.29.67-.57,1.35-.88,2a2.21,2.21,0,0,1-2,1.27,5.55,5.55,0,0,1-.91,0,2,2,0,0,1-1.16-.75,3.61,3.61,0,0,1-1-1.44A3.55,3.55,0,0,1,16.83,38.5Z"/><path class="cls-1" d="M35.87,46.85a13.51,13.51,0,0,1-3.18,1L31.58,48a2.26,2.26,0,0,1-1.91-.78c-.51-.49-1.09-.92-1.62-1.4a1.16,1.16,0,0,1-.27-.44,1.85,1.85,0,0,1,.81-2.26,8,8,0,0,1,1.13-.57,1.85,1.85,0,0,1,1.65.31,5.77,5.77,0,0,1,1.35,1.35,9.68,9.68,0,0,0,1.17,1.14C34.52,45.84,35.18,46.32,35.87,46.85Z"/><path class="cls-1" d="M11.49,34.19A10.08,10.08,0,0,1,12,31.6c.08-.23.17-.24.37-.15a12.62,12.62,0,0,1,2.26,1.49c.86.68,1.7,1.39,2.55,2.08.13.11.2.2.09.38a7.47,7.47,0,0,1-.62,1.07,2.06,2.06,0,0,1-.86.5,3.38,3.38,0,0,1-1.45.23,2.75,2.75,0,0,1-2.69-2C11.56,34.82,11.53,34.46,11.49,34.19Z"/></g></g></svg>